<?xml version="1.0" encoding="UTF-8"?>
<svg width="239px" height="67px" viewBox="0 0 239 67" version="1.1" xmlns="http://www.w3.org/2000/svg" xmlns:xlink="http://www.w3.org/1999/xlink">
    <!-- Generator: sketchtool 54.1 (76490) - https://sketchapp.com -->
    <title>BEF3DE69-2E1B-4A07-A8B5-96D3518487E3</title>
    <desc>Created with sketchtool.</desc>
    <g id="Page-1" stroke="none" stroke-width="1" fill="none" fill-rule="evenodd">
        <g id="FC-Landing-Page-Desktop" transform="translate(-100.000000, -65.000000)">
            <g id="header" transform="translate(100.000000, 60.000000)">
                <g id="Brand/Logo/White-Label-Copy" transform="translate(0.000000, 5.000000)">
                    <g id="logo@2x">
                        <g id="Group-11-Copy">
                            <path d="M19.8002806,10.7813661 C15.8949255,14.6151557 13.7061063,19.8243408 13.7196276,25.2527519 C13.7196276,25.5991833 13.7196276,25.9456147 13.7452303,26.2762993 L16.1838922,23.882773 C17.7619502,22.3271349 19.5366848,20.977589 21.4644593,19.8673178 C22.1741307,18.206269 23.2069428,16.6977707 24.5047858,15.4266967 L34.0738134,5.99431358 C35.3746698,4.71045149 35.3746698,2.6328451 34.0738134,1.348983 L34.0738134,1.348983 C32.7721082,0.0737538432 30.667813,0.0737538432 29.3661078,1.348983 L19.8002806,10.7813661 Z M24.424776,31.9924186 C29.1932535,27.3213308 36.6459154,26.6034759 42.2442891,30.2760083 L47.0160014,25.583437 C38.7491614,19.3601065 27.0775795,20.1208831 19.7170706,27.3628348 L1.4207064,45.3930164 C0.790442348,46.0131799 0.436358286,46.8543402 0.436358286,47.7314286 C0.436358286,48.608517 0.790442348,49.4496773 1.4207064,50.0698408 L1.4207064,50.0698408 C2.7144998,51.3296913 4.79781445,51.3296913 6.09160785,50.0698408 L24.424776,31.9924186 Z M49.0674222,56.2898588 C53.2170308,52.197703 55.4127628,46.5683893 55.111271,40.7949256 L52.6822103,43.1884519 C51.0996158,44.7449709 49.3200035,46.0945452 47.3872418,47.2039071 C46.6809379,48.8640625 45.6519716,50.372501 44.3581166,51.6445282 L34.7874892,61.0769113 C33.4883887,62.3614872 33.4883887,64.4376661 34.7874892,65.7222419 L34.7874892,65.7222419 C36.0897422,66.9976532 38.1945417,66.9976532 39.4967947,65.7222419 L49.0674222,56.2898588 Z M44.4413266,35.0788089 C41.2014917,38.2488616 36.6091933,39.6905869 32.1024018,38.9525423 L32.1024018,38.9367955 C30.1436361,38.6055747 28.2765325,37.8762046 26.6202132,36.7952192 L21.8501011,41.4877907 C24.5252035,43.5095751 27.6628143,44.8557896 30.9886822,45.4087648 L30.9886822,45.4087648 C32.1315699,45.6098659 33.2904419,45.7099949 34.451454,45.7079556 C39.9659828,45.7087227 45.2541729,43.5500794 49.149032,39.7083928 L67.4645984,21.6624637 C68.7654549,20.3786016 68.7654549,18.3009951 67.4645984,17.017133 L67.4645984,17.017133 C66.8388201,16.4031123 65.9903149,16.0596194 65.1066225,16.0625743 C64.22293,16.0655292 63.3768165,16.4146885 62.7552928,17.0328798 L44.4413266,35.0788089 Z M38.2006563,33.535614 C38.1997726,35.5869754 36.5093436,37.2493088 34.4247846,37.2487291 C32.3402256,37.2481495 30.6507515,35.5848762 30.6510459,33.5335147 C30.6513403,31.4821531 32.3412918,29.8193496 34.4258509,29.8193494 C35.428819,29.8176776 36.3913364,30.2083728 37.1014427,30.9053983 C37.8115491,31.6024238 38.2110097,32.5486176 38.2118575,33.535614 L38.2006563,33.535614 Z" id="logo-2" fill="#DA6D6A"></path>
                            <path d="M81.7669323,45.6922068 L81.7669323,21.3790186 L94.8883418,21.3790186 L94.8883418,25.9456148 L86.9018839,25.9456148 L86.9018839,30.4807173 L96.1828808,30.4807173 L96.1828808,35.0158198 L86.9018839,35.0158198 L86.9018839,45.6922068 L81.7669323,45.6922068 L81.7669323,45.6922068 Z M98.4359216,23.6623166 C98.4040415,22.5504996 99.0625979,21.5313928 100.099289,21.088278 C101.135981,20.6451633 102.342329,20.8671509 103.146258,21.6489697 C103.950187,22.4307885 104.190027,23.615215 103.752041,24.6405689 C103.314055,25.6659229 102.286322,26.3260061 101.156214,26.307793 C99.6743015,26.2887758 98.4727821,25.1203015 98.4359216,23.6623166 L98.4359216,23.6623166 Z M103.537271,45.6922071 L98.8375659,45.6922071 L98.8375659,29.20522 L103.542071,29.20522 L103.542071,45.6922071 L103.537271,45.6922071 Z M111.557332,21.3790186 L111.557332,45.6922068 L106.851226,45.6922068 L106.851226,21.3790186 L111.557332,21.3790186 Z M131.205841,45.6922071 L126.499736,45.6922071 L126.499736,37.4723339 C126.499736,34.6378948 125.009976,33.4883724 122.889748,33.4883724 C120.883347,33.7361741 119.426265,35.4878439 119.575792,37.4723339 L119.575792,45.6922071 L114.871287,45.6922071 L114.871287,29.20522 L119.575792,29.20522 L119.575792,30.3547425 C120.701628,29.3598003 122.170647,28.824801 123.683433,28.8587886 C125.886504,28.7795227 127.994274,29.746039 129.349642,31.4570244 C130.828066,29.7375041 133.026007,28.7799384 135.313482,28.8587886 C140.450034,28.8587886 142.935101,32.7010282 142.935101,37.4723339 L142.935101,45.6922071 L138.262599,45.6922071 L138.262599,37.4723339 C138.38907,36.4850187 138.087785,35.4908784 137.43242,34.7330206 C136.777055,33.9751627 135.828033,33.5234601 134.817429,33.4883724 C133.799729,33.5402555 132.845385,33.9905175 132.166994,34.7388534 C131.488604,35.4871893 131.142521,36.4714365 131.205841,37.4723339 L131.205841,45.6922071 L131.205841,45.6922071 Z M171.10133,34.9528325 C170.334329,41.3023609 164.876024,46.0920822 158.378363,46.1173731 C152.235015,46.1031271 146.970422,41.7911636 145.841029,35.8486724 C144.711636,29.9061812 148.036757,24.0132924 153.759621,21.8150861 C159.482484,19.6168798 165.985055,21.7348584 169.24513,26.8589342 L165.2367,29.6618795 C163.764811,27.3109232 161.183616,25.8530096 158.378363,25.7881461 C154.202,25.6818185 150.670838,28.8091551 150.339758,32.9074532 C150.008677,37.0057514 152.993376,40.6428384 157.134354,41.187195 C161.275332,41.7315516 165.1255,38.9929494 165.899171,34.9528325 L171.10133,34.9528325 L171.10133,34.9528325 Z M190.951455,45.6922068 L186.278953,45.6922068 L186.278953,37.4723336 C186.278953,34.8268572 184.721986,33.4883721 182.800179,33.4883721 C180.576363,33.5022448 178.78305,35.2839 178.790149,37.4723336 L178.790149,45.6922068 L174.085644,45.6922068 L174.085644,21.3790186 L178.790149,21.3790186 L178.790149,30.386236 C179.996199,29.3228242 181.581591,28.7735176 183.198622,28.8587883 C187.770313,28.8587883 190.951455,32.7010279 190.951455,37.4723336 L190.951455,45.6922068 L190.951455,45.6922068 Z M210.335938,29.2052201 L210.335938,45.6922069 L205.631433,45.6922069 L205.631433,44.5269375 C204.540217,45.5598891 203.068807,46.111337 201.555795,46.0543852 C196.935594,45.7790851 193.331881,42.0115361 193.331881,37.4565869 C193.331881,32.9016377 196.935594,29.1340887 201.555795,28.8587887 C203.050674,28.8711363 204.493474,29.4007127 205.631433,30.3547426 L205.631433,29.2052201 L210.335938,29.2052201 L210.335938,29.2052201 Z M205.829853,37.4723343 C205.894324,36.4383171 205.521719,35.4240455 204.800245,34.6696319 C204.078772,33.9152184 203.072571,33.4877317 202.019844,33.4883726 C199.846544,33.5734283 198.129216,35.3319538 198.129216,37.4723343 C198.129216,39.6127147 199.846544,41.3712402 202.019844,41.4562959 C203.074377,41.4625394 204.084014,41.0367707 204.806738,40.2810494 C205.529462,39.5253281 205.900117,38.5077857 205.829853,37.4723343 L205.829853,37.4723343 Z M213.25306,23.6623168 C213.220528,22.5495998 213.879222,21.5293468 214.916644,21.0855843 C215.954067,20.6418218 217.161485,20.8638363 217.966077,21.6463003 C218.77067,22.4287643 219.01055,23.614243 218.571914,24.6403238 C218.133278,25.6664047 217.104382,26.3266365 215.973352,26.3077932 C214.490193,26.2904551 213.286772,25.1215066 213.249859,23.6623168 L213.25306,23.6623168 Z M218.356004,45.6922071 L213.651499,45.6922071 L213.651499,29.20522 L218.356004,29.20522 L218.356004,45.6922071 Z M238.535775,45.6922071 L233.863274,45.6922071 L233.863274,37.4723336 C233.863274,34.8268571 232.306306,33.4883719 230.3845,33.4883719 C229.299209,33.4386264 228.243288,33.843583 227.478401,34.6028913 C226.713514,35.3621997 226.311242,36.4048011 226.371269,37.4723336 L226.371269,45.6922071 L221.666764,45.6922071 L221.666764,29.2052195 L226.371269,29.2052195 L226.371269,30.354742 C227.591808,29.3188335 229.169785,28.7833692 230.779742,28.858788 C235.351433,28.858788 238.532575,32.7010277 238.532575,37.4723336 L238.532575,45.6922071 L238.535775,45.6922071 Z" id="Color_Fill_2" fill="#FFFFFF"></path>
                        </g>
                    </g>
                </g>
            </g>
        </g>
    </g>
</svg>